HIERARCHY
ROOT mixamorig:Hips
{
	OFFSET -0.000008 104.274872 1.554316
	CHANNELS 6 Xposition Yposition Zposition Xrotation Yrotation Zrotation
	JOINT mixamorig:Spine
	{
		OFFSET -0.000005 10.181595 0.131519
		CHANNELS 6 Xposition Yposition Zposition Xrotation Yrotation Zrotation
		JOINT mixamorig:Spine1
		{
			OFFSET -0.000000 9.893959 -1.470707
			CHANNELS 6 Xposition Yposition Zposition Xrotation Yrotation Zrotation
			JOINT mixamorig:Spine2
			{
				OFFSET -0.000000 9.220757 -1.370641
				CHANNELS 6 Xposition Yposition Zposition Xrotation Yrotation Zrotation
				JOINT mixamorig:Neck
				{
					OFFSET 0.000001 16.740417 -2.049036
					CHANNELS 6 Xposition Yposition Zposition Xrotation Yrotation Zrotation
					JOINT mixamorig:Head
					{
						OFFSET 0.000000 9.617874 1.685006
						CHANNELS 6 Xposition Yposition Zposition Xrotation Yrotation Zrotation
						JOINT mixamorig:HeadTop_End
						{
							OFFSET 0.000002 22.037354 7.501101
							CHANNELS 6 Xposition Yposition Zposition Xrotation Yrotation Zrotation
							End Site
							{
								OFFSET 0.000168 2310.654297 -282.823242
							}
						}
					}
				}
				JOINT mixamorig:RightShoulder
				{
					OFFSET -4.569970 11.014908 -2.160885
					CHANNELS 6 Xposition Yposition Zposition Xrotation Yrotation Zrotation
					JOINT mixamorig:RightArm
					{
						OFFSET -10.592851 -0.524811 -2.232101
						CHANNELS 6 Xposition Yposition Zposition Xrotation Yrotation Zrotation
						JOINT mixamorig:RightForeArm
						{
							OFFSET -27.841511 0.000031 -0.000004
							CHANNELS 6 Xposition Yposition Zposition Xrotation Yrotation Zrotation
							JOINT mixamorig:RightHand
							{
								OFFSET -28.328831 -0.000015 0.000015
								CHANNELS 6 Xposition Yposition Zposition Xrotation Yrotation Zrotation
								JOINT mixamorig:RightHandThumb1
								{
									OFFSET -2.464806 -1.573990 2.681852
									CHANNELS 6 Xposition Yposition Zposition Xrotation Yrotation Zrotation
									JOINT mixamorig:RightHandThumb2
									{
										OFFSET -3.215179 -1.872803 1.924282
										CHANNELS 6 Xposition Yposition Zposition Xrotation Yrotation Zrotation
										JOINT mixamorig:RightHandThumb3
										{
											OFFSET -2.654831 -1.527969 1.512609
											CHANNELS 6 Xposition Yposition Zposition Xrotation Yrotation Zrotation
											JOINT mixamorig:RightHandThumb4
											{
												OFFSET -2.018814 -1.152008 1.108052
												CHANNELS 6 Xposition Yposition Zposition Xrotation Yrotation Zrotation
												End Site
												{
													OFFSET -188.809540 -114.533607 132.431396
												}
											}
										}
									}
								}
								JOINT mixamorig:RightHandIndex1
								{
									OFFSET -9.108284 -0.517868 2.259835
									CHANNELS 6 Xposition Yposition Zposition Xrotation Yrotation Zrotation
									JOINT mixamorig:RightHandIndex2
									{
										OFFSET -3.699989 0.000000 0.001215
										CHANNELS 6 Xposition Yposition Zposition Xrotation Yrotation Zrotation
										JOINT mixamorig:RightHandIndex3
										{
											OFFSET -2.850006 0.000031 -0.000522
											CHANNELS 6 Xposition Yposition Zposition Xrotation Yrotation Zrotation
											JOINT mixamorig:RightHandIndex4
											{
												OFFSET -2.772186 -0.000015 -0.000020
												CHANNELS 6 Xposition Yposition Zposition Xrotation Yrotation Zrotation
												End Site
												{
													OFFSET -277.218445 0.000000 -0.050231
												}
											}
										}
									}
								}
								JOINT mixamorig:RightHandMiddle1
								{
									OFFSET -9.532516 -0.000031 -0.000023
									CHANNELS 6 Xposition Yposition Zposition Xrotation Yrotation Zrotation
									JOINT mixamorig:RightHandMiddle2
									{
										OFFSET -3.700005 -0.000015 0.003713
										CHANNELS 6 Xposition Yposition Zposition Xrotation Yrotation Zrotation
										JOINT mixamorig:RightHandMiddle3
										{
											OFFSET -2.949974 0.000015 -0.002054
											CHANNELS 6 Xposition Yposition Zposition Xrotation Yrotation Zrotation
											JOINT mixamorig:RightHandMiddle4
											{
												OFFSET -2.946640 0.000000 -0.000156
												CHANNELS 6 Xposition Yposition Zposition Xrotation Yrotation Zrotation
												End Site
												{
													OFFSET -294.664337 0.000000 -0.113670
												}
											}
										}
									}
								}
								JOINT mixamorig:RightHandRing1
								{
									OFFSET -9.103600 -0.043076 -1.865134
									CHANNELS 6 Xposition Yposition Zposition Xrotation Yrotation Zrotation
									JOINT mixamorig:RightHandRing2
									{
										OFFSET -3.379288 0.000000 -0.001055
										CHANNELS 6 Xposition Yposition Zposition Xrotation Yrotation Zrotation
										JOINT mixamorig:RightHandRing3
										{
											OFFSET -2.889687 -0.000015 0.000379
											CHANNELS 6 Xposition Yposition Zposition Xrotation Yrotation Zrotation
											JOINT mixamorig:RightHandRing4
											{
												OFFSET -2.638809 -0.000015 0.000941
												CHANNELS 6 Xposition Yposition Zposition Xrotation Yrotation Zrotation
												End Site
												{
													OFFSET -263.880371 0.000000 0.516020
												}
											}
										}
									}
								}
								JOINT mixamorig:RightHandPinky1
								{
									OFFSET -8.076683 -0.486710 -3.806280
									CHANNELS 6 Xposition Yposition Zposition Xrotation Yrotation Zrotation
									JOINT mixamorig:RightHandPinky2
									{
										OFFSET -3.600014 -0.000015 -0.003747
										CHANNELS 6 Xposition Yposition Zposition Xrotation Yrotation Zrotation
										JOINT mixamorig:RightHandPinky3
										{
											OFFSET -2.099983 0.000000 -0.005739
											CHANNELS 6 Xposition Yposition Zposition Xrotation Yrotation Zrotation
											JOINT mixamorig:RightHandPinky4
											{
												OFFSET -2.115768 -0.000031 -0.003680
												CHANNELS 6 Xposition Yposition Zposition Xrotation Yrotation Zrotation
												End Site
												{
													OFFSET -211.577087 0.000000 -0.350686
												}
											}
										}
									}
								}
							}
						}
					}
				}
				JOINT mixamorig:LeftShoulder
				{
					OFFSET 4.570447 11.014725 -2.160855
					CHANNELS 6 Xposition Yposition Zposition Xrotation Yrotation Zrotation
					JOINT mixamorig:LeftArm
					{
						OFFSET 10.592371 -0.524597 -2.232119
						CHANNELS 6 Xposition Yposition Zposition Xrotation Yrotation Zrotation
						JOINT mixamorig:LeftForeArm
						{
							OFFSET 27.841532 -0.000031 0.000026
							CHANNELS 6 Xposition Yposition Zposition Xrotation Yrotation Zrotation
							JOINT mixamorig:LeftHand
							{
								OFFSET 28.328846 -0.000061 0.000022
								CHANNELS 6 Xposition Yposition Zposition Xrotation Yrotation Zrotation
								JOINT mixamorig:LeftHandThumb1
								{
									OFFSET 2.466141 -1.576172 2.681732
									CHANNELS 6 Xposition Yposition Zposition Xrotation Yrotation Zrotation
									JOINT mixamorig:LeftHandThumb2
									{
										OFFSET 3.217812 -1.872070 1.916482
										CHANNELS 6 Xposition Yposition Zposition Xrotation Yrotation Zrotation
										JOINT mixamorig:LeftHandThumb3
										{
											OFFSET 2.656029 -1.528778 1.514513
											CHANNELS 6 Xposition Yposition Zposition Xrotation Yrotation Zrotation
											JOINT mixamorig:LeftHandThumb4
											{
												OFFSET 2.020889 -1.154053 1.115139
												CHANNELS 6 Xposition Yposition Zposition Xrotation Yrotation Zrotation
												End Site
												{
													OFFSET 190.885437 -115.081749 130.048782
												}
											}
										}
									}
								}
								JOINT mixamorig:LeftHandIndex1
								{
									OFFSET 9.109314 -0.518021 2.259871
									CHANNELS 6 Xposition Yposition Zposition Xrotation Yrotation Zrotation
									JOINT mixamorig:LeftHandIndex2
									{
										OFFSET 3.699989 0.000000 -0.000322
										CHANNELS 6 Xposition Yposition Zposition Xrotation Yrotation Zrotation
										JOINT mixamorig:LeftHandIndex3
										{
											OFFSET 2.850006 0.000000 0.000352
											CHANNELS 6 Xposition Yposition Zposition Xrotation Yrotation Zrotation
											JOINT mixamorig:LeftHandIndex4
											{
												OFFSET 2.774864 -0.000031 -0.000027
												CHANNELS 6 Xposition Yposition Zposition Xrotation Yrotation Zrotation
												End Site
												{
													OFFSET 277.486267 0.000000 -0.009857
												}
											}
										}
									}
								}
								JOINT mixamorig:LeftHandMiddle1
								{
									OFFSET 9.533394 0.000061 0.000044
									CHANNELS 6 Xposition Yposition Zposition Xrotation Yrotation Zrotation
									JOINT mixamorig:LeftHandMiddle2
									{
										OFFSET 3.699989 -0.000015 -0.000231
										CHANNELS 6 Xposition Yposition Zposition Xrotation Yrotation Zrotation
										JOINT mixamorig:LeftHandMiddle3
										{
											OFFSET 2.949997 -0.000015 -0.000059
											CHANNELS 6 Xposition Yposition Zposition Xrotation Yrotation Zrotation
											JOINT mixamorig:LeftHandMiddle4
											{
												OFFSET 2.952896 0.000031 0.000063
												CHANNELS 6 Xposition Yposition Zposition Xrotation Yrotation Zrotation
												End Site
												{
													OFFSET 295.289337 0.000000 0.022810
												}
											}
										}
									}
								}
								JOINT mixamorig:LeftHandRing1
								{
									OFFSET 9.104523 -0.042999 -1.865074
									CHANNELS 6 Xposition Yposition Zposition Xrotation Yrotation Zrotation
									JOINT mixamorig:LeftHandRing2
									{
										OFFSET 3.150009 -0.000031 0.000043
										CHANNELS 6 Xposition Yposition Zposition Xrotation Yrotation Zrotation
										JOINT mixamorig:LeftHandRing3
										{
											OFFSET 2.949982 -0.000015 0.000040
											CHANNELS 6 Xposition Yposition Zposition Xrotation Yrotation Zrotation
											JOINT mixamorig:LeftHandRing4
											{
												OFFSET 2.644348 0.000000 0.000057
												CHANNELS 6 Xposition Yposition Zposition Xrotation Yrotation Zrotation
												End Site
												{
													OFFSET 264.434631 0.000000 0.012105
												}
											}
										}
									}
								}
								JOINT mixamorig:LeftHandPinky1
								{
									OFFSET 8.077789 -0.486847 -3.806259
									CHANNELS 6 Xposition Yposition Zposition Xrotation Yrotation Zrotation
									JOINT mixamorig:LeftHandPinky2
									{
										OFFSET 3.599953 0.000031 0.014727
										CHANNELS 6 Xposition Yposition Zposition Xrotation Yrotation Zrotation
										JOINT mixamorig:LeftHandPinky3
										{
											OFFSET 2.100021 0.000015 0.007705
											CHANNELS 6 Xposition Yposition Zposition Xrotation Yrotation Zrotation
											JOINT mixamorig:LeftHandPinky4
											{
												OFFSET 2.125504 0.000031 0.007517
												CHANNELS 6 Xposition Yposition Zposition Xrotation Yrotation Zrotation
												End Site
												{
													OFFSET 212.550781 0.000000 0.625752
												}
											}
										}
									}
								}
							}
						}
					}
				}
			}
		}
	}
	JOINT mixamorig:RightUpLeg
	{
		OFFSET -8.207787 -6.751648 -1.599560
		CHANNELS 6 Xposition Yposition Zposition Xrotation Yrotation Zrotation
		JOINT mixamorig:RightLeg
		{
			OFFSET -0.000002 -44.370117 0.345942
			CHANNELS 6 Xposition Yposition Zposition Xrotation Yrotation Zrotation
			JOINT mixamorig:RightFoot
			{
				OFFSET 0.000003 -44.423679 -3.043532
				CHANNELS 6 Xposition Yposition Zposition Xrotation Yrotation Zrotation
				JOINT mixamorig:RightToeBase
				{
					OFFSET -0.000002 -8.728671 10.710558
					CHANNELS 6 Xposition Yposition Zposition Xrotation Yrotation Zrotation
					JOINT mixamorig:RightToe_End
					{
						OFFSET -0.000001 -0.000679 9.278119
						CHANNELS 6 Xposition Yposition Zposition Xrotation Yrotation Zrotation
						End Site
						{
							OFFSET 0.000000 -0.067690 927.812134
						}
					}
				}
			}
		}
	}
	JOINT mixamorig:LeftUpLeg
	{
		OFFSET 8.207793 -6.751686 -1.599556
		CHANNELS 6 Xposition Yposition Zposition Xrotation Yrotation Zrotation
		JOINT mixamorig:LeftLeg
		{
			OFFSET -0.000004 -44.370014 0.346954
			CHANNELS 6 Xposition Yposition Zposition Xrotation Yrotation Zrotation
			JOINT mixamorig:LeftFoot
			{
				OFFSET -0.000001 -44.423672 -3.044401
				CHANNELS 6 Xposition Yposition Zposition Xrotation Yrotation Zrotation
				JOINT mixamorig:LeftToeBase
				{
					OFFSET -0.000002 -8.728669 10.710558
					CHANNELS 6 Xposition Yposition Zposition Xrotation Yrotation Zrotation
					JOINT mixamorig:LeftToe_End
					{
						OFFSET -0.000003 -0.000679 9.278133
						CHANNELS 6 Xposition Yposition Zposition Xrotation Yrotation Zrotation
						End Site
						{
							OFFSET 0.000000 -0.068021 927.813477
						}
					}
				}
			}
		}
	}
}
MOTION
Frames: 3
Frame Time: 0.033333
0.000006 104.270477 1.554256 0.000010 0.000003 -0.000113 -0.000005 10.181587 0.131522 0.000001 -0.000003 0.000084 -0.000000 9.893967 -1.470711 0.000001 0.000000 -0.000000 -0.000000 9.220802 -1.370642 0.000000 -0.000000 -0.000000 0.000001 16.740433 -2.049030 0.000000 -0.000000 -0.000000 0.000000 9.617859 1.685014 0.000000 0.000000 0.000000 0.000002 22.037384 7.501101 0.000000 -0.000000 0.000000 -4.569968 11.014880 -2.160881 0.000008 0.000001 -0.000038 -10.592752 -0.524827 -2.231713 35.399498 80.544289 -30.259753 -27.841442 0.000022 0.000612 41.671804 116.469929 -63.154122 -28.328842 0.000023 0.000030 -0.000322 -0.000045 0.000006 -2.464567 -1.574200 2.682277 42.486229 -142.733933 110.897772 -3.214928 -1.873065 1.924510 262.676781 -41.928523 -43.592053 -2.654733 -1.528266 1.512807 287.242185 -20.530748 -24.264015 -2.018846 -1.151978 1.108060 -0.000000 0.000003 0.000004 -9.108301 -0.517925 2.260366 235.896757 12.513394 23.400221 -3.700031 -0.000021 0.001759 237.320032 17.498458 31.432654 -2.850031 -0.000036 -0.000008 244.044790 12.453033 19.790398 -2.772157 -0.000001 -0.000021 0.000001 0.000001 0.000000 -9.532534 -0.000143 0.000464 69.602264 167.356123 -161.765804 -3.700029 -0.000061 0.004216 243.970969 16.134869 25.493784 -2.950016 -0.000118 -0.001600 248.059930 11.653174 17.180094 -2.946622 0.000012 -0.000150 -0.000001 -0.000001 0.000002 -9.103640 -0.043093 -1.864592 63.837810 152.667910 -137.374147 -3.379326 0.000305 -0.000743 109.812319 11.718956 -16.644392 -2.889681 0.000390 0.000541 87.719990 -7.011208 6.704042 -2.638801 0.000000 0.000941 0.000000 0.000000 -0.000000 -8.076693 -0.486731 -3.805755 58.105594 152.903962 -133.170739 -3.600049 0.000274 -0.003346 128.374416 4.188809 -7.947966 -2.099915 0.000381 -0.005529 94.785643 -8.968778 9.928839 -2.115768 -0.000041 -0.003678 -0.000001 0.000000 -0.000003 4.570446 11.014691 -2.160851 -0.000018 0.000010 -0.000021 10.592485 -0.524582 -2.232347 27.232864 -70.891278 19.567131 27.841743 -0.000057 -0.000083 46.534386 -110.952960 64.018147 28.328833 -0.000026 0.000025 0.000020 -0.000089 -0.000000 2.466157 -1.576160 2.681884 12.111886 137.813383 -77.352548 3.217805 -1.872011 1.916525 67.904750 133.575646 -123.977892 2.656072 -1.528756 1.514645 -64.751109 15.397181 19.895451 2.020906 -1.154082 1.115153 0.000004 0.000001 0.000002 9.109208 -0.517729 2.260075 -136.523911 -13.016570 -31.918826 3.699849 0.000310 -0.000116 -134.174340 -16.087049 -36.990443 2.849918 0.000309 0.000596 -306.736883 -166.002926 152.489724 2.774870 -0.000047 -0.000031 0.000003 -0.000002 0.000001 9.533299 0.000349 0.000254 -135.475095 -13.903848 -33.163031 3.699879 0.000326 -0.000012 -132.957077 -16.807533 -37.493675 2.949941 0.000271 0.000149 53.273092 -168.357428 -202.983291 2.952866 -0.000029 0.000054 -0.000003 0.000001 -0.000000 9.104395 -0.042820 -1.864839 62.505964 -153.280947 137.256135 3.150043 0.000115 -0.000072 69.338626 -22.880145 15.936483 2.949952 0.000152 -0.000149 66.436929 5.274211 -3.454305 2.644321 0.000032 0.000055 -0.000001 -0.000000 -0.000001 8.077666 -0.486696 -3.806006 73.774615 -150.618635 141.272436 3.600080 0.000105 0.014709 139.838056 -32.928240 79.179617 2.099972 0.000305 0.007541 108.649677 5.054795 -6.525197 2.125483 -0.000017 0.007507 0.000001 0.000002 -0.000001 -8.207786 -6.751667 -1.599560 -0.077001 -0.000003 0.000080 -0.000002 -44.370110 0.345938 0.153719 -0.000000 -0.000000 0.000000 -44.423679 -3.043532 -0.076700 0.000000 -0.000002 -0.000006 -8.728667 10.710559 -0.000009 -0.000000 -0.000000 -0.000001 -0.000679 9.278123 0.000000 -0.000000 -0.000000 8.207792 -6.751710 -1.599556 -0.074518 -0.000003 0.000081 -0.000002 -44.370014 0.346960 0.148822 0.000002 0.000000 -0.000001 -44.423664 -3.044403 -0.074314 0.000000 -0.000002 -0.000004 -8.728671 10.710558 0.000007 -0.000000 -0.000000 0.000000 -0.000680 9.278137 -0.000000 0.000000 -0.000001 
0.000006 104.270477 1.554256 0.000010 0.000003 -0.000113 -0.000005 10.181587 0.131522 0.000001 -0.000003 0.000084 -0.000000 9.893967 -1.470711 0.000001 0.000000 -0.000000 -0.000000 9.220802 -1.370642 0.000000 -0.000000 -0.000000 0.000001 16.740433 -2.049030 0.000000 -0.000000 -0.000000 0.000000 9.617859 1.685014 0.000000 0.000000 0.000000 0.000002 22.037384 7.501101 0.000000 -0.000000 0.000000 -4.569968 11.014880 -2.160881 0.000008 0.000001 -0.000038 -10.592755 -0.524825 -2.231716 33.538927 79.652409 -28.212380 -27.841427 0.000053 0.000619 41.747971 120.475480 -67.397049 -28.328829 0.000021 0.000019 -0.000322 -0.000044 0.000007 -2.464528 -1.574160 2.682304 27.035335 -139.216918 94.464897 -3.214885 -1.873066 1.924527 261.046770 -46.473136 -46.509463 -2.654726 -1.528256 1.512771 292.546237 -21.155451 -22.043536 -2.018826 -1.151998 1.108053 -0.000003 -0.000001 0.000002 -9.108316 -0.517905 2.260360 232.659821 10.262778 20.626068 -3.700008 -0.000033 0.001750 236.743372 13.599696 24.878337 -2.850037 -0.000042 -0.000018 243.416850 10.316552 16.625075 -2.772159 -0.000031 -0.000036 0.000003 0.000000 0.000001 -9.532532 -0.000135 0.000466 67.211527 169.249806 -163.749428 -3.700011 -0.000036 0.004224 242.224681 13.339702 21.839258 -2.950023 -0.000109 -0.001556 246.756075 9.756322 14.755066 -2.946623 0.000010 -0.000154 0.000001 -0.000001 -0.000001 -9.103637 -0.043096 -1.864604 63.483494 155.848115 -141.869873 -3.379333 0.000323 -0.000748 105.937894 10.944506 -14.497628 -2.889670 0.000372 0.000509 81.787089 -6.695179 5.768853 -2.638801 -0.000015 0.000938 0.000007 -0.000001 -0.000000 -8.076687 -0.486739 -3.805764 56.974918 155.356177 -136.232904 -3.600013 0.000301 -0.003379 124.725278 2.443672 -4.040242 -2.099940 0.000372 -0.005553 91.339751 -9.013932 9.397218 -2.115808 -0.000041 -0.003679 -0.000002 -0.000001 -0.000002 4.570446 11.014691 -2.160851 -0.000018 0.000010 -0.000021 10.592484 -0.524589 -2.232345 27.065408 -70.163911 19.189393 27.841736 -0.000084 -0.000086 46.486674 -111.656265 64.639251 28.328838 -0.000028 0.000018 0.000020 -0.000089 0.000000 2.466128 -1.576170 2.681866 10.473443 130.947854 -70.424865 3.217794 -1.872021 1.916546 61.194110 133.396040 -118.710887 2.656079 -1.528762 1.514638 -72.256339 18.016647 23.423833 2.020898 -1.154085 1.115149 0.000004 0.000000 0.000003 9.109201 -0.517730 2.260068 -137.724262 -15.198885 -38.063845 3.699863 0.000259 -0.000097 -129.462315 -20.594388 -42.115267 2.849923 0.000274 0.000597 -298.131911 -163.549699 152.879605 2.774877 -0.000043 -0.000017 -0.000003 0.000001 0.000001 9.533292 0.000371 0.000265 -131.745415 -16.253441 -35.357868 3.699808 0.000265 -0.000026 -140.104979 -24.103657 -60.932698 2.949896 0.000270 0.000170 52.151800 -159.887174 -219.841987 2.952873 -0.000014 0.000075 0.000005 -0.000000 0.000000 9.104404 -0.042781 -1.864844 59.692261 -156.642793 140.376015 3.150086 0.000226 -0.000065 109.738969 -16.398111 23.148831 2.949941 0.000167 -0.000142 73.399856 7.784507 -5.805416 2.644310 0.000032 0.000059 0.000002 0.000000 -0.000000 8.077701 -0.486637 -3.806020 69.202575 -161.643639 153.233436 3.600065 0.000134 0.014779 173.130624 -5.397923 84.098862 2.099953 0.000376 0.007583 130.161631 6.677428 -13.583266 2.125505 -0.000003 0.007489 -0.000002 -0.000002 -0.000000 -8.207786 -6.751667 -1.599560 -0.077001 -0.000003 0.000080 -0.000002 -44.370110 0.345938 0.153719 -0.000000 -0.000000 0.000000 -44.423679 -3.043532 -0.076700 0.000000 -0.000002 -0.000006 -8.728667 10.710559 -0.000009 -0.000000 -0.000000 -0.000001 -0.000679 9.278123 0.000000 -0.000000 -0.000000 8.207792 -6.751710 -1.599556 -0.074518 -0.000003 0.000081 -0.000002 -44.370014 0.346960 0.148822 0.000002 0.000000 -0.000001 -44.423664 -3.044403 -0.074314 0.000000 -0.000002 -0.000004 -8.728671 10.710558 0.000007 -0.000000 -0.000000 0.000000 -0.000680 9.278137 -0.000000 0.000000 -0.000001 
0.000006 104.270477 1.554256 0.000010 0.000003 -0.000113 -0.000005 10.181587 0.131522 0.000001 -0.000003 0.000084 -0.000000 9.893967 -1.470711 0.000001 0.000000 -0.000000 -0.000000 9.220802 -1.370642 0.000000 -0.000000 -0.000000 0.000001 16.740433 -2.049030 0.000000 -0.000000 -0.000000 0.000000 9.617859 1.685014 0.000000 0.000000 0.000000 0.000002 22.037384 7.501101 0.000000 -0.000000 0.000000 -4.569968 11.014880 -2.160881 0.000008 0.000001 -0.000038 -10.592756 -0.524826 -2.231718 30.960872 79.431234 -25.912221 -27.841429 0.000049 0.000613 40.293233 118.521923 -63.342778 -28.328827 0.000021 0.000031 -0.000323 -0.000044 0.000006 -2.464539 -1.574149 2.682320 26.567404 -139.074358 93.899480 -3.214901 -1.873040 1.924546 256.735254 -48.215002 -50.331585 -2.654722 -1.528249 1.512794 289.513469 -22.780908 -23.709170 -2.018827 -1.151998 1.108059 -0.000003 -0.000003 0.000002 -9.108313 -0.517875 2.260388 232.691103 11.210623 22.473984 -3.700016 -0.000028 0.001739 234.537659 14.786147 28.236738 -2.850052 -0.000036 -0.000008 241.543520 10.916992 18.233185 -2.772168 -0.000031 -0.000014 0.000004 -0.000000 0.000002 -9.532544 -0.000109 0.000476 66.042568 167.878810 -161.314110 -3.700038 -0.000048 0.004232 241.020328 14.947239 25.012446 -2.950014 -0.000097 -0.001567 246.036309 10.567669 16.191868 -2.946606 -0.000014 -0.000157 -0.000000 0.000000 -0.000004 -9.103641 -0.043093 -1.864597 64.057196 152.838050 -137.789941 -3.379339 0.000319 -0.000765 102.516953 11.884385 -14.805063 -2.889657 0.000376 0.000528 81.731389 -7.181129 6.184351 -2.638794 -0.000015 0.000940 -0.000001 -0.000000 -0.000000 -8.076700 -0.486705 -3.805740 54.557003 153.907999 -131.681799 -3.600023 0.000287 -0.003367 124.393400 4.075069 -7.081051 -2.099933 0.000372 -0.005550 92.262940 -8.955754 9.488956 -2.115814 -0.000042 -0.003678 -0.000003 0.000000 -0.000003 4.570446 11.014691 -2.160851 -0.000018 0.000010 -0.000021 10.592484 -0.524577 -2.232348 26.621537 -71.529791 19.342143 27.841749 -0.000095 -0.000082 45.176524 -111.347581 62.704880 28.328829 -0.000013 0.000012 0.000016 -0.000089 0.000001 2.466112 -1.576187 2.681874 4.530438 133.488944 -65.181602 3.217785 -1.872021 1.916511 57.060906 132.257229 -114.761084 2.656059 -1.528737 1.514593 -74.247810 21.051247 24.955969 2.020898 -1.154053 1.115144 0.000005 0.000000 0.000003 9.109203 -0.517743 2.260067 -135.082086 -13.943933 -32.945236 3.699861 0.000288 -0.000097 -125.271776 -21.143407 -39.671439 2.849914 0.000251 0.000604 -295.333282 -161.896862 151.748007 2.774876 -0.000044 -0.000047 0.000003 -0.000001 -0.000002 9.533333 0.000344 0.000289 -124.844697 -13.695250 -25.887976 3.699862 0.000257 0.000030 -123.356399 -23.639218 -42.440688 2.949909 0.000195 0.000175 74.289167 -153.762475 -214.202710 2.952865 0.000002 0.000064 0.000003 -0.000001 0.000000 9.104440 -0.042781 -1.864832 61.576655 -164.540049 154.331375 3.149906 -0.000012 0.000119 162.411817 -35.028410 127.774753 2.949982 0.000131 -0.000165 63.148589 -0.788326 0.485420 2.644320 -0.000002 0.000055 0.000002 0.000001 -0.000001 8.077716 -0.486616 -3.806007 65.901784 -167.857978 160.832705 3.600080 0.000181 0.014781 173.329164 -4.433829 75.648341 2.099961 0.000315 0.007533 108.780632 4.137525 -5.251572 2.125494 -0.000011 0.007509 0.000004 0.000005 0.000000 -8.207786 -6.751667 -1.599560 -0.077001 -0.000003 0.000080 -0.000002 -44.370110 0.345938 0.153719 -0.000000 -0.000000 0.000000 -44.423679 -3.043532 -0.076700 0.000000 -0.000002 -0.000006 -8.728667 10.710559 -0.000009 -0.000000 -0.000000 -0.000001 -0.000679 9.278123 0.000000 -0.000000 -0.000000 8.207792 -6.751710 -1.599556 -0.074518 -0.000003 0.000081 -0.000002 -44.370014 0.346960 0.148822 0.000002 0.000000 -0.000001 -44.423664 -3.044403 -0.074314 0.000000 -0.000002 -0.000004 -8.728671 10.710558 0.000007 -0.000000 -0.000000 0.000000 -0.000680 9.278137 -0.000000 0.000000 -0.000001 
